#!OML:ASF X:\für Bonn\!DataBase\2005_08_10_Bjorn_Final\c3d\bjorn.ASF
:FULLY-SPECIFIED
:DEGREES
52
root 3.78516 24.1426 -19.6797 4.62841 -4.62417 360.225
lowerback -1.01089 0.759885 2.2553
upperback 6.21818 0.853724 0.841365
thorax 7.06359 0.521163 -0.322558
lowerneck 2.33145 -0.892289 -0.521585
upperneck -2.71176 -1.25744 -1.52863
head -1.22801 -0.598659 -0.361694
rclavicle -8.34896e-015 -3.97569e-015
rhumerus -46.9985 1.40281 -88.7368
rradius 110.198
rwrist -5.89223
rhand -23.7246 27.4312
rfingers 7.12502
rthumb 2.74334 -2.53085
lclavicle -8.34896e-015 -3.97569e-015
lhumerus -43.876 -24.9792 88.2937
lradius 98.9393
lwrist -3.48128
lhand -47.6633 -29.8238
lfingers 7.12502
lthumb -20.3449 -0.869469
rfemur -17.4307 -7.85618 15.4897
rtibia 34.5228
rfoot 5.36424 8.85481
rtoes -25.8739
lfemur -17.6254 8.29801 -17.2794
ltibia 34.0988
lfoot 11.1021 -1.5146
ltoes -22.3906
53
root 3.80349 24.1115 -19.5508 4.86596 -4.75778 360.313
lowerback -0.758191 0.764126 2.19504
upperback 6.35018 0.867871 0.822269
thorax 7.05804 0.525944 -0.309914
lowerneck 1.91163 -0.882932 -0.555712
upperneck -2.97408 -1.24659 -1.5485
head -1.23821 -0.592579 -0.363678
rclavicle 7.95139e-016 -1.15295e-014
rhumerus -47.1359 1.23101 -88.7415
rradius 109.516
rwrist -6.02434
rhand -23.7374 27.4039
rfingers 7.12502
rthumb 2.73096 -2.55833
lclavicle 7.95139e-016 -1.15295e-014
lhumerus -44.1727 -25.1281 88.6186
lradius 98.463
lwrist -3.89933
lhand -47.9061 -29.7787
lfingers 7.12502
lthumb -20.5782 -0.849397
rfemur -18.2535 -7.52675 15.4765
rtibia 34.4759
rfoot 4.53241 9.23049
rtoes -26.6898
lfemur -18.4884 8.25571 -17.3942
ltibia 33.8124
lfoot 10.6029 -1.61789
ltoes -22.915
54
root 3.8217 24.0591 -19.4224 5.14937 -4.87708 360.356
lowerback -0.577732 0.765795 2.20231
upperback 6.48803 0.873645 0.793912
thorax 7.10222 0.531161 -0.3441
lowerneck 1.61483 -0.882865 -0.509682
upperneck -3.42412 -1.25302 -1.6486
head -1.33046 -0.592767 -0.402958
rclavicle -3.57812e-015 -1.63003e-014
rhumerus -47.332 1.02874 -88.7659
rradius 108.949
rwrist -6.09337
rhand -23.7568 27.3228
rfingers 7.12502
rthumb 2.7122 -2.63975
lclavicle -3.57812e-015 -1.63003e-014
lhumerus -44.4911 -25.3105 88.9161
lradius 98.0636
lwrist -4.14689
lhand -47.8839 -29.1516
lfingers 7.12502
lthumb -20.5569 -0.220051
rfemur -19.1327 -7.18962 15.5085
rtibia 34.445
rfoot 3.73876 9.58985
rtoes -27.2779
lfemur -19.4344 8.20818 -17.4565
ltibia 33.5822
lfoot 10.1848 -1.75742
ltoes -23.7099
55
root 3.84021 23.9889 -19.2938 5.47816 -4.97376 360.399
lowerback -0.46002 0.762777 2.20306
upperback 6.61802 0.871999 0.762089
thorax 7.17427 0.532621 -0.377937
lowerneck 1.48708 -0.882914 -0.495462
upperneck -4.06681 -1.26357 -1.67073
head -1.51285 -0.593575 -0.412281
rclavicle -1.66979e-014 5.1684e-015
rhumerus -47.5586 0.846456 -88.8073
rradius 108.407
rwrist -6.12546
rhand -23.7328 27.2019
rfingers 7.12502
rthumb 2.73538 -2.76033
lclavicle -1.66979e-014 5.1684e-015
lhumerus -44.8062 -25.5125 89.2038
lradius 97.6894
lwrist -4.26632
lhand -47.7085 -28.2614
lfingers 7.12502
lthumb -20.3883 0.688271
rfemur -20.0686 -6.95337 15.5444
rtibia 34.4181
rfoot 3.13702 9.92066
rtoes -27.4059
lfemur -20.4584 8.12326 -17.4979
ltibia 33.4173
lfoot 9.86915 -1.84925
ltoes -24.0455
56
root 3.85965 23.9088 -19.1649 5.81744 -5.06814 360.421
lowerback -0.354448 0.774799 2.26486
upperback 6.73956 0.888957 0.709565
thorax 7.24658 0.547673 -0.466193
lowerneck 1.34073 -0.875988 -0.583764
upperneck -4.64986 -1.25789 -1.49343
head -1.67144 -0.589048 -0.342802
rclavicle 8.94531e-015 -2.90226e-014
rhumerus -47.7513 0.571983 -88.8607
rradius 107.855
rwrist -6.07083
rhand -23.7192 27.0586
rfingers 7.12502
rthumb 2.74852 -2.90339
lclavicle 8.94531e-015 -2.90226e-014
lhumerus -45.2266 -25.8236 89.4751
lradius 97.3709
lwrist -4.27204
lhand -47.5454 -27.3797
lfingers 7.12502
lthumb -20.2316 1.58668
rfemur -21.0124 -6.70037 15.5861
rtibia 34.3956
rfoot 2.66682 10.1794
rtoes -27.1726
lfemur -21.4907 7.94296 -17.5001
ltibia 33.3036
lfoot 9.59476 -1.86888
ltoes -24.5772
57
root 3.87734 23.8188 -19.0344 6.1164 -5.14992 360.451
lowerback -0.225893 0.778328 2.33215
upperback 6.86192 0.897003 0.625827
thorax 7.30705 0.559863 -0.591135
lowerneck 1.28989 -0.86872 -0.569825
upperneck -5.32912 -1.2517 -1.35705
head -1.88039 -0.584496 -0.30249
rclavicle -2.38542e-015 7.95139e-016
rhumerus -47.9365 0.24104 -88.956
rradius 107.203
rwrist -5.76722
rhand -23.8028 27.0822
rfingers 7.12502
rthumb 2.66783 -2.88091
lclavicle -2.38542e-015 7.95139e-016
lhumerus -45.7745 -26.1348 89.7045
lradius 97.07
lwrist -4.2491
lhand -47.4387 -26.5932
lfingers 7.12502
lthumb -20.1289 2.38397
rfemur -21.9132 -6.48468 15.6078
rtibia 34.3921
rfoot 2.35481 10.3439
rtoes -26.703
lfemur -22.4607 7.78947 -17.4834
ltibia 33.2004
lfoot 9.43327 -1.91007
ltoes -25.156
58
root 3.89618 23.7188 -18.9025 6.38139 -5.219 360.482
lowerback -0.123158 0.780415 2.36861
upperback 7.04996 0.89944 0.591404
thorax 7.45208 0.566866 -0.646487
lowerneck 1.1171 -0.880016 -0.558701
upperneck -6.06571 -1.27634 -1.35516
head -2.08948 -0.59282 -0.303419
rclavicle -1.64991e-014 -3.18055e-015
rhumerus -47.9979 -0.0948246 -88.9621
rradius 106.48
rwrist -5.23676
rhand -24.0695 27.2754
rfingers 7.12502
rthumb 2.41023 -2.69071
lclavicle -1.64991e-014 -3.18055e-015
lhumerus -46.1487 -26.3181 89.9823
lradius 96.8181
lwrist -4.16264
lhand -47.2431 -25.7907
lfingers 7.12502
lthumb -19.941 3.20623
rfemur -22.7867 -6.27972 15.6123
rtibia 34.4417
rfoot 2.23484 10.3959
rtoes -25.7388
lfemur -23.3511 7.56862 -17.4376
ltibia 33.0824
lfoot 9.41416 -1.88849
ltoes -25.6059
59
root 3.91491 23.6076 -18.7698 6.56926 -5.29984 360.515
lowerback 0.0891088 0.781102 2.42991
upperback 7.1946 0.905175 0.524628
thorax 7.48791 0.577243 -0.751605
lowerneck 1.15839 -0.886221 -0.450036
upperneck -6.90972 -1.29698 -1.38623
head -2.37593 -0.599119 -0.330589
rclavicle -5.76476e-015 -1.07344e-014
rhumerus -48.1131 -0.523807 -89.0194
rradius 105.602
rwrist -4.76866
rhand -24.2136 27.3038
rfingers 7.12502
rthumb 2.27106 -2.66387
lclavicle -5.76476e-015 -1.07344e-014
lhumerus -46.655 -26.3332 90.3073
lradius 96.5026
lwrist -4.27838
lhand -47.1253 -25.0946
lfingers 7.12502
lthumb -19.8278 3.91404
rfemur -23.5637 -6.02174 15.5864
rtibia 34.5214
rfoot 2.156 10.4011
rtoes -24.4626
lfemur -24.1321 7.4515 -17.371
ltibia 32.9624
lfoot 9.57878 -1.90759
ltoes -25.7346
60
root 3.93356 23.4843 -18.636 6.74595 -5.36114 360.573
lowerback 0.293655 0.772592 2.43273
upperback 7.33387 0.8991 0.487548
thorax 7.52031 0.57701 -0.793732
lowerneck 1.11361 -0.90801 -0.333421
upperneck -7.68106 -1.34448 -1.52947
head -2.62736 -0.617049 -0.394929
rclavicle -5.96354e-015 -1.51076e-014
rhumerus -48.2595 -1.00286 -89.0274
rradius 104.64
rwrist -4.33151
rhand -24.2143 27.1271
rfingers 7.12502
rthumb 2.27038 -2.84053
lclavicle -5.96354e-015 -1.51076e-014
lhumerus -47.2213 -26.2504 90.6929
lradius 96.1023
lwrist -4.35197
lhand -47.0747 -24.7304
lfingers 7.12502
lthumb -19.7791 4.28328
rfemur -24.3344 -5.85583 15.5354
rtibia 34.6539
rfoot 2.25326 10.4118
rtoes -23.6878
lfemur -24.8852 7.24768 -17.3069
ltibia 32.853
lfoot 9.84109 -1.83854
ltoes -25.7165
61
root 3.95285 23.3504 -18.4997 6.8801 -5.43206 360.606
lowerback 0.443214 0.771849 2.4681
upperback 7.5574 0.898172 0.46163
thorax 7.67727 0.582725 -0.840186
lowerneck 0.827774 -0.925113 -0.29501
upperneck -8.37102 -1.37957 -1.57651
head -2.80781 -0.631184 -0.416891
rclavicle -9.93923e-015 -1.98785e-015
rhumerus -48.2627 -1.56666 -89.0106
rradius 103.662
rwrist -3.91207
rhand -24.2129 26.9387
rfingers 7.12502
rthumb 2.27175 -3.02892
lclavicle -9.93923e-015 -1.98785e-015
lhumerus -47.731 -26.1286 91.0438
lradius 95.6554
lwrist -4.53635
lhand -47.1081 -24.701
lfingers 7.12502
lthumb -19.8112 4.3093
rfemur -25.0392 -5.63158 15.4835
rtibia 34.8186
rfoot 2.47021 10.3228
rtoes -23.8847
lfemur -25.5375 6.80771 -17.1545
ltibia 32.781
lfoot 10.0209 -1.49072
ltoes -25.595
62
root 3.97462 23.1983 -18.3631 6.99931 -5.47946 360.633
lowerback 0.575587 0.767508 2.54735
upperback 7.78631 0.891719 0.412243
thorax 7.85202 0.589984 -0.935825
lowerneck 0.329146 -0.946294 -0.243316
upperneck -8.8272 -1.4109 -1.57698
head -2.87053 -0.648076 -0.427169
rclavicle -8.54774e-015 6.75868e-015
rhumerus -48.2441 -2.25982 -89.0305
rradius 102.616
rwrist -3.42468
rhand -24.2017 26.9188
rfingers 7.12502
rthumb 2.28257 -3.04875
lclavicle -8.54774e-015 6.75868e-015
lhumerus -48.2181 -25.9846 91.3597
lradius 95.1545
lwrist -4.67104
lhand -47.0179 -24.8689
lfingers 7.12502
lthumb -19.7245 4.15038
rfemur -25.7124 -5.4836 15.4235
rtibia 35.0297
rfoot 2.80764 10.2697
rtoes -24.4027
lfemur -26.0925 6.30136 -16.9599
ltibia 32.7671
lfoot 10.0925 -0.961985
ltoes -25.2563
63
root 3.99513 23.0318 -18.224 7.13002 -5.53705 360.644
lowerback 0.656876 0.763138 2.59857
upperback 7.99355 0.882417 0.405501
thorax 8.03204 0.592366 -0.970814
lowerneck -0.0878559 -0.966221 -0.30217
upperneck -9.34467 -1.44267 -1.53803
head -2.96834 -0.662111 -0.40553
rclavicle -5.96354e-015 -1.15295e-014
rhumerus -48.2514 -2.94328 -88.9674
rradius 101.561
rwrist -2.95076
rhand -24.2119 26.9256
rfingers 7.12502
rthumb 2.27274 -3.04208
lclavicle -5.96354e-015 -1.15295e-014
lhumerus -48.7279 -25.6795 91.7522
lradius 94.5743
lwrist -4.92602
lhand -46.8851 -25.2613
lfingers 7.12502
lthumb -19.5968 3.77103
rfemur -26.3634 -5.2584 15.366
rtibia 35.2536
rfoot 3.16923 10.1231
rtoes -24.6304
lfemur -26.6215 5.8118 -16.7279
ltibia 32.836
lfoot 10.0622 -0.501595
ltoes -25.4633
64
root 4.01628 22.8509 -18.0817 7.28151 -5.59651 360.648
lowerback 0.707786 0.770381 2.69455
upperback 8.13403 0.889697 0.363349
thorax 8.15971 0.606683 -1.0673
lowerneck -0.229844 -0.997726 -0.275535
upperneck -10.104 -1.49383 -1.49856
head -3.20221 -0.685866 -0.396755
rclavicle 1.47101e-014 1.27222e-014
rhumerus -48.3461 -3.7419 -88.934
rradius 100.509
rwrist -2.51883
rhand -24.21 26.9947
rfingers 7.12502
rthumb 2.27457 -2.97294
lclavicle 1.47101e-014 1.27222e-014
lhumerus -49.2811 -25.2599 92.1163
lradius 93.9134
lwrist -5.26001
lhand -46.6372 -25.7551
lfingers 7.12502
lthumb -19.3585 3.30134
rfemur -26.9985 -5.08768 15.3088
rtibia 35.5036
rfoot 3.69924 9.97947
rtoes -24.0329
lfemur -27.1931 5.28121 -16.4562
ltibia 32.997
lfoot 9.91753 -0.127423
ltoes -25.9626
65
root 4.03847 22.6602 -17.9372 7.42861 -5.67023 360.69
lowerback 0.739968 0.785028 2.74899
upperback 8.22748 0.909781 0.30848
thorax 8.2468 0.62435 -1.15348
lowerneck -0.198367 -1.02886 -0.150868
upperneck -11.0126 -1.55427 -1.55424
head -3.52611 -0.713157 -0.434852
rclavicle 1.49089e-014 6.36111e-015
rhumerus -48.4659 -4.61831 -88.8921
rradius 99.3761
rwrist -2.05666
rhand -24.2888 27.1837
rfingers 7.12502
rthumb 2.19842 -2.78469
lclavicle 1.49089e-014 6.36111e-015
lhumerus -49.7901 -24.6626 92.4727
lradius 93.1812
lwrist -5.7303
lhand -46.3424 -26.3077
lfingers 7.12502
lthumb -19.075 2.77697
rfemur -27.5753 -4.88962 15.1923
rtibia 35.7602
rfoot 4.39145 9.7708
rtoes -23.1152
lfemur -27.772 4.58069 -16.1704
ltibia 33.257
lfoot 9.59584 0.230908
ltoes -27.0972
